REM DIRINDEX 1\2\6,1\2\7,1\2\8,1\2\9,1\3\10,1\3\11,1\4\12,1\4\13,1\4\14,1\5\15,1\5\16,1\5\17
REM DIRNAME cjc020,folder01,folder02,folder03,folder04,folder05,folder06,folder07,folder08,folder09,folder10,folder11,folder12,folder13,folder14,folder15,folder16
TITLE ""
FILE "1900_2_sec18_1738_1757.mp3" MP3
  TRACK 01 AUDIO
    TITLE "0:"
    INDEX 01 00:00:00
  TRACK 02 AUDIO
    TITLE "13:cjc020_5634"
    INDEX 01 00:00:19
  TRACK 03 AUDIO
    TITLE "0:"
    INDEX 01 00:01:56
  TRACK 04 AUDIO
    TITLE "14:cjc020_5635"
    INDEX 01 00:01:60
  TRACK 05 AUDIO
    TITLE "0:"
    INDEX 01 00:03:02
  TRACK 06 AUDIO
    TITLE "13:cjc020_5636"
    INDEX 01 00:03:55
  TRACK 07 AUDIO
    TITLE "0:"
    INDEX 01 00:04:74
  TRACK 08 AUDIO
    TITLE "14:cjc020_5637"
    INDEX 01 00:05:03
  TRACK 09 AUDIO
    TITLE "0:"
    INDEX 01 00:06:41
  TRACK 10 AUDIO
    TITLE "13:cjc020_5638"
    INDEX 01 00:07:21
  TRACK 11 AUDIO
    TITLE "0:"
    INDEX 01 00:08:23
  TRACK 12 AUDIO
    TITLE "14:cjc020_5639"
    INDEX 01 00:08:26
  TRACK 13 AUDIO
    TITLE "0:"
    INDEX 01 00:09:47
  TRACK 14 AUDIO
    TITLE "13:cjc020_5640"
    INDEX 01 00:10:25
  TRACK 15 AUDIO
    TITLE "0:"
    INDEX 01 00:11:25
  TRACK 16 AUDIO
    TITLE "14:cjc020_5641"
    INDEX 01 00:11:27
  TRACK 17 AUDIO
    TITLE "0:"
    INDEX 01 00:13:59
  TRACK 18 AUDIO
    TITLE "13:cjc020_5642"
    INDEX 01 00:14:35
  TRACK 19 AUDIO
    TITLE "0:"
    INDEX 01 00:15:50
  TRACK 20 AUDIO
    TITLE "14:cjc020_5643"
    INDEX 01 00:15:54
  TRACK 21 AUDIO
    TITLE "0:"
    INDEX 01 00:18:01
  TRACK 22 AUDIO
    TITLE "13:cjc020_5644"
    INDEX 01 00:18:56
  TRACK 23 AUDIO
    TITLE "0:"
    INDEX 01 00:20:10
  TRACK 24 AUDIO
    TITLE "14:cjc020_5645"
    INDEX 01 00:20:14
  TRACK 25 AUDIO
    TITLE "0:"
    INDEX 01 00:21:29
  TRACK 26 AUDIO
    TITLE "13:cjc020_5646"
    INDEX 01 00:22:09
  TRACK 27 AUDIO
    TITLE "0:"
    INDEX 01 00:23:16
  TRACK 28 AUDIO
    TITLE "14:cjc020_5647"
    INDEX 01 00:23:20
  TRACK 29 AUDIO
    TITLE "0:"
    INDEX 01 00:25:29
  TRACK 30 AUDIO
    TITLE "13:cjc020_5648"
    INDEX 01 00:26:07
  TRACK 31 AUDIO
    TITLE "0:"
    INDEX 01 00:27:22
  TRACK 32 AUDIO
    TITLE "14:cjc020_5649"
    INDEX 01 00:27:24
  TRACK 33 AUDIO
    TITLE "0:"
    INDEX 01 00:28:29
  TRACK 34 AUDIO
    TITLE "13:cjc020_5650"
    INDEX 01 00:29:07
  TRACK 35 AUDIO
    TITLE "0:"
    INDEX 01 00:30:26
  TRACK 36 AUDIO
    TITLE "14:cjc020_5651"
    INDEX 01 00:30:30
  TRACK 37 AUDIO
    TITLE "0:"
    INDEX 01 00:31:41
  TRACK 38 AUDIO
    TITLE "13:cjc020_5652"
    INDEX 01 00:32:21
  TRACK 39 AUDIO
    TITLE "0:"
    INDEX 01 00:33:36
  TRACK 40 AUDIO
    TITLE "14:cjc020_5653"
    INDEX 01 00:33:38
  TRACK 41 AUDIO
    TITLE "0:"
    INDEX 01 00:35:55
  TRACK 42 AUDIO
    TITLE "13:cjc020_5654"
    INDEX 01 00:36:38
  TRACK 43 AUDIO
    TITLE "0:"
    INDEX 01 00:37:57
  TRACK 44 AUDIO
    TITLE "14:cjc020_5655"
    INDEX 01 00:37:59
  TRACK 45 AUDIO
    TITLE "0:"
    INDEX 01 00:40:56
  TRACK 46 AUDIO
    TITLE "13:cjc020_5656"
    INDEX 01 00:41:38
  TRACK 47 AUDIO
    TITLE "0:"
    INDEX 01 00:42:49
  TRACK 48 AUDIO
    TITLE "14:cjc020_5657"
    INDEX 01 00:42:53
  TRACK 49 AUDIO
    TITLE "0:"
    INDEX 01 00:43:74
  TRACK 50 AUDIO
    TITLE "13:cjc020_5658"
    INDEX 01 00:44:54
  TRACK 51 AUDIO
    TITLE "0:"
    INDEX 01 00:45:73
  TRACK 52 AUDIO
    TITLE "14:cjc020_5659"
    INDEX 01 00:46:02
  TRACK 53 AUDIO
    TITLE "0:"
    INDEX 01 00:49:53
  TRACK 54 AUDIO
    TITLE "13:cjc020_5660"
    INDEX 01 00:50:37
  TRACK 55 AUDIO
    TITLE "0:"
    INDEX 01 00:51:54
  TRACK 56 AUDIO
    TITLE "14:cjc020_5661"
    INDEX 01 00:51:56
  TRACK 57 AUDIO
    TITLE "0:"
    INDEX 01 00:53:68
  TRACK 58 AUDIO
    TITLE "13:cjc020_5662"
    INDEX 01 00:54:48
  TRACK 59 AUDIO
    TITLE "0:"
    INDEX 01 00:55:57
  TRACK 60 AUDIO
    TITLE "14:cjc020_5663"
    INDEX 01 00:55:59
  TRACK 61 AUDIO
    TITLE "0:"
    INDEX 01 00:57:68
  TRACK 62 AUDIO
    TITLE "13:cjc020_5664"
    INDEX 01 00:58:52
  TRACK 63 AUDIO
    TITLE "0:"
    INDEX 01 00:59:59
  TRACK 64 AUDIO
    TITLE "14:cjc020_5665"
    INDEX 01 00:59:63
  TRACK 65 AUDIO
    TITLE "0:"
    INDEX 01 01:03:29
  TRACK 66 AUDIO
    TITLE "13:cjc020_5666"
    INDEX 01 01:04:07
  TRACK 67 AUDIO
    TITLE "0:"
    INDEX 01 01:05:11
  TRACK 68 AUDIO
    TITLE "14:cjc020_5667"
    INDEX 01 01:05:13
  TRACK 69 AUDIO
    TITLE "0:"
    INDEX 01 01:06:10
  TRACK 70 AUDIO
    TITLE "13:cjc020_5668"
    INDEX 01 01:06:67
  TRACK 71 AUDIO
    TITLE "0:"
    INDEX 01 01:07:74
  TRACK 72 AUDIO
    TITLE "14:cjc020_5669"
    INDEX 01 01:08:01
  TRACK 73 AUDIO
    TITLE "0:"
    INDEX 01 01:09:16
  TRACK 74 AUDIO
    TITLE "13:cjc020_5670"
    INDEX 01 01:09:71
  TRACK 75 AUDIO
    TITLE "0:"
    INDEX 01 01:11:11
  TRACK 76 AUDIO
    TITLE "14:cjc020_5671"
    INDEX 01 01:11:13
  TRACK 77 AUDIO
    TITLE "0:"
    INDEX 01 01:16:44
  TRACK 78 AUDIO
    TITLE "13:cjc020_5672"
    INDEX 01 01:17:26
  TRACK 79 AUDIO
    TITLE "0:"
    INDEX 01 01:18:68
  TRACK 80 AUDIO
    TITLE "14:cjc020_5673"
    INDEX 01 01:18:70
  TRACK 81 AUDIO
    TITLE "0:"
    INDEX 01 01:20:14
